<svg width="20" height="27" viewBox="0 0 20 27" fill="none" xmlns="http://www.w3.org/2000/svg">
<path d="M18.774 25.6586H18.2866C18.2866 25.6534 18.2842 25.6483 18.2832 25.6434L18.2699 25.5838C18.2613 25.5446 18.2521 25.5057 18.2425 25.4671C18.2384 25.449 18.234 25.4308 18.2295 25.4127C18.2169 25.3618 18.2036 25.3109 18.1899 25.2601L18.1858 25.2455C18.1707 25.1904 18.155 25.1355 18.1386 25.0809L18.1222 25.0281C18.1109 24.9905 18.099 24.9532 18.088 24.9159C18.0815 24.8955 18.0747 24.8754 18.0682 24.8553C18.0562 24.8194 18.0439 24.7834 18.0313 24.7478C18.0248 24.729 18.018 24.7098 18.0115 24.6914C17.9955 24.6467 17.9791 24.6023 17.9622 24.5582C17.9585 24.5488 17.9554 24.5397 17.9517 24.5303C17.9318 24.4785 17.911 24.427 17.8898 24.3754C17.8823 24.3566 17.8744 24.3382 17.8665 24.3197C17.8522 24.2873 17.8378 24.2517 17.8231 24.218L17.7955 24.1554C17.7811 24.123 17.7664 24.0906 17.7514 24.0582C17.7421 24.0381 17.7326 24.0177 17.723 23.9976C17.7056 23.9603 17.6888 23.9234 17.6693 23.8868C17.6622 23.8728 17.6557 23.8586 17.6485 23.8443C17.6242 23.7961 17.5993 23.7471 17.574 23.7005L17.5398 23.6399L17.4916 23.552L17.454 23.4872C17.4383 23.46 17.4226 23.4328 17.4065 23.4056C17.3938 23.3835 17.3809 23.3615 17.3679 23.3408C17.3501 23.3113 17.3337 23.2824 17.3142 23.2533L17.265 23.1742C17.2417 23.1379 17.2185 23.1013 17.1946 23.0653C17.1795 23.0427 17.1645 23.0203 17.1491 22.9979C17.1337 22.9756 17.117 22.95 17.1006 22.9263C17.0842 22.9027 17.0664 22.879 17.0514 22.8557C17.0363 22.8324 17.0199 22.8113 17.0039 22.7909C16.9878 22.7705 16.9697 22.7432 16.9522 22.7196L16.9041 22.6548C16.8699 22.6117 16.8384 22.5686 16.8049 22.5252L16.7581 22.4659C16.7383 22.4409 16.7178 22.4163 16.6976 22.3917L16.6525 22.3372C16.6316 22.3123 16.6104 22.2876 16.5893 22.2627L16.5448 22.2115L16.4785 22.1363L16.4392 22.0929C16.3575 22.0031 16.2738 21.9147 16.188 21.8285L16.1504 21.7906L16.0718 21.7138L16.0332 21.6768C16.0058 21.6506 15.9785 21.6247 15.9508 21.5991L15.9224 21.5731C15.8257 21.484 15.7262 21.3972 15.6251 21.3139L15.5974 21.2909C15.5661 21.265 15.5347 21.2394 15.503 21.2141L15.4716 21.1888C15.4374 21.1629 15.4063 21.1373 15.3731 21.1117L15.3564 21.0991C15.2446 21.0135 15.1301 20.9302 15.0146 20.8502L14.9985 20.8389C14.962 20.8139 14.9254 20.7893 14.8885 20.765L14.8642 20.7491C14.8266 20.7241 14.7887 20.6998 14.7507 20.6755L14.7442 20.6717C14.6185 20.5919 14.4903 20.5156 14.3597 20.4426L14.3546 20.4393C14.3132 20.4163 14.2719 20.3939 14.2305 20.3716L14.2124 20.3619C13.9923 20.2441 13.7663 20.1361 13.5343 20.0378L13.5199 20.0317C13.4588 20.0058 13.3972 19.9808 13.335 19.9562H14.5583C14.7576 19.9562 14.9192 19.7387 14.9192 19.4701C14.9192 19.2015 14.7576 18.9841 14.5583 18.9841H14.194C14.2165 18.9296 14.2415 18.868 14.2685 18.7987C14.613 18.5952 15.2193 18.1616 15.8209 17.3651L15.8257 17.359C15.8713 17.2994 15.916 17.2377 15.96 17.174L15.9689 17.1613C16.0126 17.0988 16.0564 17.0343 16.0995 16.9669L16.1111 16.9491C16.1316 16.9167 16.1521 16.8843 16.1726 16.8519C16.1726 16.8519 16.1726 16.8493 16.175 16.8477C16.1962 16.8153 16.217 16.7796 16.2379 16.7449L16.2512 16.7226C16.269 16.6928 16.2871 16.6623 16.3045 16.6315C16.308 16.626 16.3114 16.6205 16.3145 16.6147C16.3346 16.5797 16.3548 16.544 16.3746 16.5081L16.3883 16.4831C16.4047 16.4533 16.4208 16.4232 16.4368 16.3927C16.4416 16.3843 16.4464 16.3755 16.4508 16.3668C16.47 16.3302 16.4891 16.2932 16.5083 16.2556L16.5216 16.2294C16.5366 16.1989 16.552 16.1678 16.567 16.1367L16.5834 16.1043C16.6019 16.0661 16.62 16.0272 16.6381 15.988L16.6494 15.963C16.6645 15.9306 16.6791 15.8982 16.6938 15.8658L16.7113 15.8269C16.7284 15.7877 16.7455 15.7482 16.7619 15.7083C16.7649 15.7012 16.768 15.6937 16.7708 15.6866C16.7861 15.65 16.8012 15.6127 16.8162 15.5751L16.8333 15.5324C16.8473 15.4967 16.8613 15.4608 16.875 15.4248L16.8853 15.3976C16.9013 15.3548 16.917 15.3111 16.9328 15.268L16.9492 15.2219C16.9615 15.1876 16.9734 15.1526 16.9854 15.1176C16.9898 15.1046 16.9943 15.0917 16.9984 15.0787C17.0134 15.034 17.0285 14.9883 17.0432 14.9426C17.0479 14.9267 17.0531 14.9102 17.0579 14.8953L17.092 14.7887C17.0965 14.7732 17.1013 14.7563 17.1057 14.7424C17.1197 14.6954 17.1337 14.6474 17.1471 14.5991C17.1515 14.5839 17.1556 14.5684 17.1597 14.5528C17.17 14.5155 17.1802 14.4783 17.1901 14.4404C17.1946 14.4232 17.199 14.406 17.2038 14.3888C17.2165 14.3389 17.2291 14.2887 17.2414 14.2378L17.2517 14.1954C17.2612 14.1549 17.2708 14.114 17.28 14.0729L17.2923 14.0178C17.3039 13.965 17.3156 13.9122 17.3265 13.8584C17.3289 13.848 17.331 13.8373 17.333 13.826C17.3426 13.7796 17.3518 13.7327 17.3607 13.6857C17.3644 13.6666 17.3679 13.6474 17.3716 13.6283C17.3805 13.58 17.3891 13.5311 17.3976 13.4828C17.3993 13.4725 17.4014 13.4624 17.4031 13.4524C17.4126 13.3953 17.422 13.3379 17.4311 13.28C17.4342 13.2605 17.4373 13.2411 17.44 13.2213C17.4472 13.1743 17.454 13.127 17.4608 13.0791L17.467 13.035C17.4752 12.9754 17.4831 12.9154 17.4906 12.8545C17.493 12.8354 17.495 12.8163 17.4974 12.7968C17.5033 12.7484 17.5088 12.6998 17.5138 12.651C17.5159 12.6335 17.5179 12.6163 17.5196 12.5988C17.5262 12.5362 17.5324 12.473 17.5381 12.4093C17.5381 12.3915 17.5412 12.3736 17.5425 12.3555C17.547 12.3043 17.5514 12.2528 17.5552 12.2009C17.5552 12.1818 17.5582 12.1627 17.5596 12.1436C17.5644 12.0775 17.5688 12.0109 17.5729 11.944C17.5729 11.9287 17.5729 11.9115 17.5753 11.8979C17.5784 11.8422 17.5815 11.7861 17.5839 11.7298C17.5839 11.7093 17.5839 11.6889 17.5866 11.6685C17.5893 11.5989 17.5921 11.5289 17.5941 11.4579C17.5941 11.4482 17.5941 11.4381 17.5941 11.4281C17.596 11.365 17.5973 11.3013 17.5982 11.2369C17.5982 11.2158 17.5982 11.1948 17.5982 11.1737C17.5982 11.1046 17.5982 11.035 17.5982 10.965V10.9488C17.5982 10.8743 17.5982 10.7988 17.5982 10.722V10.6572C17.5982 10.5924 17.5955 10.5243 17.5938 10.4569V10.4203C17.5914 10.3425 17.5883 10.2638 17.5853 10.1847C17.5853 10.1643 17.5832 10.1436 17.5825 10.1232C17.5795 10.0566 17.5761 9.98967 17.5723 9.92227C17.5723 9.90574 17.5723 9.88986 17.5695 9.87204C17.5647 9.79103 17.5595 9.70937 17.5538 9.62707L17.5497 9.56971C17.5446 9.50101 17.5394 9.43199 17.5336 9.36232C17.5336 9.34223 17.5306 9.32214 17.5289 9.30205C17.5217 9.2178 17.5138 9.13258 17.5056 9.04703C17.5056 9.03083 17.5022 9.01463 17.5008 8.9981C17.4936 8.92519 17.4858 8.85164 17.4779 8.77743C17.4755 8.75507 17.4731 8.73304 17.4704 8.71068C17.4608 8.62254 17.4506 8.53408 17.4396 8.44432C17.4396 8.4333 17.4366 8.42228 17.4352 8.41191C17.4254 8.33155 17.415 8.25076 17.4041 8.16953C17.4007 8.14555 17.3976 8.12158 17.3942 8.0976C17.3814 8.00557 17.3683 7.91278 17.3549 7.81924C15.9877 -1.40748 6.29917 0.0899114 6.29917 0.0899114L6.60952 2.07239L0.750122 7.94076L1.00613 10.2068L3.22575 11.5029C3.3247 11.2645 3.45174 11.0374 3.60445 10.826C5.03658 9.25993 7.81503 8.03052 8.61039 7.7755C8.76966 7.72463 8.86024 7.69903 8.86024 7.69903C5.05572 12.3672 5.48843 17.7151 5.65796 18.9899C5.48159 19.0223 5.34522 19.2242 5.34522 19.4704C5.34522 19.7387 5.50689 19.9565 5.70615 19.9565H6.92944C4.89495 20.7639 3.28002 22.3015 2.43722 24.2338C2.43623 24.2365 2.43509 24.2391 2.43381 24.2416C2.3716 24.385 2.31372 24.5305 2.26018 24.6781C2.26027 24.6796 2.26027 24.6811 2.26018 24.6826C2.24582 24.7228 2.23181 24.763 2.21814 24.8035C2.21301 24.8181 2.20788 24.8327 2.20309 24.8476C2.19079 24.8839 2.1794 24.9205 2.16891 24.9574C2.16276 24.9762 2.15695 24.9953 2.15114 25.0141C2.1402 25.0488 2.12961 25.0838 2.11936 25.1188L2.1009 25.1836C2.09133 25.216 2.08176 25.2507 2.07287 25.2844C2.06638 25.3083 2.06022 25.332 2.05407 25.356C2.04587 25.3884 2.03732 25.4208 2.02946 25.4532C2.0216 25.4856 2.01408 25.518 2.00656 25.5523C1.99904 25.5867 1.98947 25.6269 1.98127 25.6645H1.49353C1.39974 25.6625 1.30648 25.6783 1.21922 25.711C1.13197 25.7437 1.05248 25.7925 0.985415 25.8547C0.918352 25.9169 0.865064 25.9912 0.828687 26.0732C0.792309 26.1552 0.77357 26.2432 0.77357 26.3322C0.77357 26.4211 0.792309 26.5091 0.828687 26.5911C0.865064 26.6731 0.918352 26.7474 0.985415 26.8096C1.05248 26.8718 1.13197 26.9206 1.21922 26.9533C1.30648 26.986 1.39974 27.0018 1.49353 26.9998H18.7802C18.874 27.0018 18.9672 26.986 19.0545 26.9533C19.1417 26.9206 19.2212 26.8718 19.2883 26.8096C19.3553 26.7474 19.4086 26.6731 19.445 26.5911C19.4814 26.5091 19.5001 26.4211 19.5001 26.3322C19.5001 26.2432 19.4814 26.1552 19.445 26.0732C19.4086 25.9912 19.3553 25.9169 19.2883 25.8547C19.2212 25.7925 19.1417 25.7437 19.0545 25.711C18.9672 25.6783 18.874 25.6625 18.7802 25.6645L18.774 25.6586Z" fill="#595653"/>
</svg>
